<?xml version="1.0" encoding="utf-8"?>
<!-- Generator: Adobe Illustrator 23.0.6, SVG Export Plug-In . SVG Version: 6.00 Build 0)  -->
<svg version="1.1" id="Layer_1" xmlns="http://www.w3.org/2000/svg" xmlns:xlink="http://www.w3.org/1999/xlink" x="0px" y="0px"
	 viewBox="0 0 78.6 60" style="enable-background:new 0 0 78.6 60;" xml:space="preserve">
<style type="text/css">
	.st0{fill:#1C3F94;}
	.st1{fill:#FFFFFF;}
</style>
<title>ue</title>
<desc>Created with Sketch.</desc>
<g>
	<g>
		<g>
			<g>
				<g>
					<path class="st0" d="M78.1,30c0,16.5-17.4,29.9-38.9,29.9C17.9,59.9,0.4,46.5,0.4,30S17.9,0.1,39.3,0.1
						C60.7,0.1,78.1,13.5,78.1,30z"/>
				</g>
			</g>
		</g>
	</g>
	<g>
		<g>
			<g>
				<path class="st1" d="M53.9,38.6V40l-6.2,0.3v-1.8c-0.8,1.2-2.3,1.9-4.2,1.9c-1.8,0-2.8-0.4-3.3-1.3c-0.5-0.8-0.5-1.9-0.5-3.3
					v-5.4l-1.2,0.3v-1.6l5.7-1.4v0.3l0,8.6c0,0.9,0,1.6,0.3,1.9c0.1,0.1,0.3,0.2,0.6,0.2c1.4,0,2.6-2.1,2.6-2.9v-5.4l-1,0.3v-1.6
					l5.5-1.4v10.9L53.9,38.6z"/>
			</g>
		</g>
		<path class="st1" d="M39.3,4.4C20.4,4.4,5.1,15.9,5.1,30s15.3,25.6,34.2,25.6c18.9,0,34.2-11.5,34.2-25.6S58.2,4.4,39.3,4.4z
			 M71.8,31.8L69,32.6l0.3-2.1l-3.9,1.1c-0.7-2.2-2.9-3.7-5.5-3.7c-3.4,0-6.9,2.2-6.9,6.3c0,3.1,2.2,6.1,7,6.1c3,0,5-1.4,5.8-4
			l-1.4,0.5c-0.8,1.5-2.2,2.3-4.2,2.3c-1.5,0-2.2-0.5-2.2-1.8v-1.8l7.2-1.9l2.5-0.7l-0.1,1l-0.1,1.1l0.2-0.1l4.1-1.6
			C69.4,44.8,56,54,39.3,54c-17.8,0-31.9-10.4-32.6-23l3.5-0.6l-0.4,2.2l5.5-1.1l0,7.3l-1.7,0V40h7.7c1.1,0,2.2,0,3.4-0.2
			c4.1-0.7,7.7-4.5,7.7-8.2c0-2.7-2.3-4.6-5.5-4.6c-0.3,0-0.6,0-0.9,0c2.2-1.2,3.7-2.5,4.2-4.1l3-0.7v16.5h-1.7V40h7.9v-1.2h-1.9
			V19.9L37.4,20l-6.8,1.6c0-0.1,0-0.3,0-0.4c-0.1-2-1.7-3.1-4.2-3.1c-0.7,0-1.4,0.1-2.1,0.3l-10.7,2.7l-0.1,0v1.5l0.2-0.1l1.7-0.4
			v7.4l-3.5,0.8l0.4-2l-5.5,1.3v0c0-0.3,0-0.5,0-0.5C7.5,16.4,21.5,6,39.3,6c18.3,0,32.6,11,32.6,24C71.9,30.6,71.9,31.2,71.8,31.8
			L71.8,31.8z M61.3,30.2v3.2l-3.4,0.8v-3.9c0-0.9,0.9-1.2,1.6-1.2C60.3,29.2,61.3,29.4,61.3,30.2z M21.6,29
			c0.5-0.1,1.1-0.2,1.6-0.2c2.4,0,3.9,1.4,3.9,3.5c0,2.6-2.5,5.4-5.6,6.1c-0.3,0.1-0.6,0.1-0.9,0.2v-9.3
			C20.9,29.2,21.3,29.1,21.6,29z M20.6,20.4c0.5-0.1,0.9-0.2,1.4-0.2c2,0,3.4,1.1,3.4,2.7c0,2-2.1,4.2-4.7,5L20.6,20.4z"/>
	</g>
</g>
</svg>
