<?xml version="1.0" encoding="utf-8"?>
<!-- Generator: Adobe Illustrator 22.0.0, SVG Export Plug-In . SVG Version: 6.00 Build 0)  -->
<svg version="1.1" id="Layer_1" xmlns="http://www.w3.org/2000/svg" xmlns:xlink="http://www.w3.org/1999/xlink" x="0px" y="0px"
	 viewBox="0 0 103 40" style="enable-background:new 0 0 103 40;" xml:space="preserve">
<style type="text/css">
	.st0{fill:#FFFFFF;}
</style>
<title>logo-logitech</title>
<path class="st0" d="M0.3,9.5h3.7v20.8H0.3C0.3,30.2,0.3,9.5,0.3,9.5z M21.7,22.9c0,4.4-3.6,7.7-8.1,7.7s-8.1-3.4-8.1-7.7
	c0-4.4,3.6-7.7,8.1-7.7S21.7,18.5,21.7,22.9z M9.3,22.9c0,2.4,1.9,4.2,4.3,4.2c2.4,0,4.3-1.8,4.3-4.2c0-2.4-1.9-4.2-4.3-4.2
	C11.3,18.7,9.3,20.5,9.3,22.9z M23,22.9c0-4.4,3.6-7.7,8.1-7.7c0.9,0,1.8,0.2,2.7,0.5h5.3v2.9L38,18.9c0.8,1.1,1.2,2.5,1.2,4
	c0,4.4-3.6,7.7-8.1,7.7S23,27.3,23,22.9L23,22.9z M31.1,35.4c2.4,0,4.3-1.8,4.3-4.2h3.8c0,4.4-3.6,7.7-8.1,7.7S23,35.6,23,31.2h3.8
	C26.8,33.6,28.7,35.4,31.1,35.4z M26.8,22.9c0,2.4,1.9,4.2,4.3,4.2c2.4,0,4.3-1.8,4.3-4.2c0-2.4-1.9-4.2-4.3-4.2
	C28.7,18.7,26.8,20.5,26.8,22.9z M42.6,9.1c1.4,0,2.5,1.1,2.5,2.4c0,1.3-1.1,2.4-2.5,2.4c-1.4,0-2.5-1.1-2.5-2.4
	C40.1,10.1,41.2,9.1,42.6,9.1z M40.7,15.6h3.7v14.6h-3.7C40.7,30.2,40.7,15.6,40.7,15.6z M48.1,18.9h-2v-3.2h2v-4.5h3.7v4.5h2v3.2
	h-2v11.3h-3.7V18.9z M62.3,30.6c-4.9,0-8-3.2-8-7.6c0-4.5,3.4-7.8,7.9-7.8c4.5,0,7.7,3.3,7.7,8.3v0.9H58.3c0.5,1.9,2.1,3,4.1,3
	c1.7,0,3-0.8,4.2-2l2.5,2.4C67.4,29.7,65,30.6,62.3,30.6L62.3,30.6z M58.2,21.4h7.9c-0.5-2-1.9-3-3.9-3
	C60.2,18.4,58.7,19.5,58.2,21.4z M85.7,27.7c-1.5,1.8-3.8,2.9-6.4,2.9c-4.5,0-8.1-3.4-8.1-7.7c0-4.4,3.6-7.7,8.1-7.7
	c2.6,0,4.9,1.1,6.4,2.9l-2.6,2.5c-1-1.1-2.3-1.9-3.9-1.9c-2.4,0-4.3,1.8-4.3,4.2c0,2.4,1.8,4.2,4.2,4.2c1.6,0,2.9-0.8,3.9-1.9
	L85.7,27.7L85.7,27.7z M87.1,30.2V9.5h3.7V17c1.1-1.2,2.7-1.8,4.5-1.8c3.6,0,6.2,2.4,6.2,6.5v8.6h-3.7v-7.9c0-2.3-1.2-3.6-3.3-3.6
	c-2.3,0-3.7,1.5-3.7,3.6v7.9H87.1L87.1,30.2z M101.5,12.9c0.7,0,1.3,0.6,1.3,1.3c0,0.7-0.6,1.3-1.3,1.3c-0.7,0-1.3-0.6-1.3-1.3
	C100.2,13.5,100.7,12.9,101.5,12.9z M101.5,13.1c-0.6,0-1.1,0.5-1.1,1.1c0,0.6,0.5,1.1,1.1,1.1c0.6,0,1.1-0.5,1.1-1.1
	C102.6,13.6,102.1,13.1,101.5,13.1z M101.5,14.3h-0.3v0.5H101v-1.3h0.5c0.3,0,0.5,0.1,0.5,0.4c0,0.2-0.1,0.3-0.3,0.4l0.3,0.5h-0.2
	L101.5,14.3z M101.2,13.7v0.5h0.3c0.2,0,0.3-0.1,0.3-0.2c0-0.1-0.1-0.2-0.3-0.2L101.2,13.7L101.2,13.7z"/>
</svg>
