<?xml version="1.0" encoding="UTF-8"?><svg id="Layer_1" xmlns="http://www.w3.org/2000/svg" width="89" height="40" viewBox="0 0 89 40"><defs><style>.cls-1{fill:#ff5000;}</style></defs><path class="cls-1" d="M11.75,22.24l8.26-13.58h3.08V31.34h-4.37v-12.64l-5.44,8.91h-3.05l-5.44-8.91v12.64H.41V8.66H3.49l8.26,13.58Z"/><path class="cls-1" d="M32.65,12.55v4.7h6.97v3.89h-6.97v6.32h9.56v3.89h-13.93V8.66h13.61v3.89h-9.24Z"/><path class="cls-1" d="M43.67,8.66h4.5l6.19,15.49,6.22-15.49h4.5l-9.17,22.69h-3.08l-9.17-22.69Z"/><path class="cls-1" d="M76.76,8.33c7,0,11.83,5.22,11.83,11.67s-4.83,11.67-11.83,11.67-11.83-5.22-11.83-11.67,4.83-11.67,11.83-11.67Zm0,19.44c4.28,0,7.45-3.5,7.45-7.78s-3.18-7.78-7.45-7.78-7.45,3.5-7.45,7.78,3.18,7.78,7.45,7.78Z"/></svg>