<svg width="758" height="177" viewBox="0 0 758 177" fill="none" xmlns="http://www.w3.org/2000/svg">
<g clip-path="url(#clip0)">
<path fill-rule="evenodd" clip-rule="evenodd" d="M31.1917 96.9924C31.1917 81.311 31.1917 73.4702 34.2435 67.4807C36.928 62.2122 41.2113 57.9287 46.4799 55.2443C52.4694 52.1924 60.3101 52.1924 75.9916 52.1924H98.3916C114.073 52.1924 121.914 52.1924 127.903 55.2443C133.172 57.9287 137.455 62.2122 140.14 67.4807C143.192 73.4702 143.192 81.311 143.192 96.9924V103.392C143.192 119.074 143.192 126.915 140.14 132.904C137.455 138.173 133.172 142.456 127.903 145.141C121.914 148.192 114.073 148.192 98.3916 148.192H56.7916C47.8308 148.192 43.3503 148.192 39.9278 146.449C36.9172 144.915 34.4696 142.467 32.9356 139.456C31.1917 136.034 31.1917 131.553 31.1917 122.592V96.9924ZM71.1916 100.192C71.1916 95.7742 74.7733 92.1924 79.1916 92.1924C83.6099 92.1924 87.1916 95.7742 87.1916 100.192V116.192C87.1916 120.611 83.6099 124.192 79.1916 124.192C74.7733 124.192 71.1916 120.611 71.1916 116.192V100.192ZM111.192 92.1924C106.773 92.1924 103.192 95.7742 103.192 100.192V116.192C103.192 120.611 106.773 124.192 111.192 124.192C115.61 124.192 119.192 120.611 119.192 116.192V100.192C119.192 95.7742 115.61 92.1924 111.192 92.1924Z" fill="#31C3A2"/>
<path fill-rule="evenodd" clip-rule="evenodd" d="M59.1305 28.0136C59.6757 32.3981 56.5634 36.3944 52.1789 36.9397C49.762 37.2402 47.8202 37.6491 46.1015 38.1847C32.2962 42.4866 21.4858 53.297 17.1839 67.1023C16.6483 68.8211 16.2394 70.7628 15.9388 73.1797C15.3936 77.5642 11.3972 80.6765 7.01272 80.1313C2.62821 79.586 -0.484115 75.5897 0.0611327 71.2052C0.452726 68.0563 1.03228 65.1536 1.90834 62.3423C7.77457 43.5169 22.516 28.7754 41.3414 22.9092C44.1528 22.0331 47.0554 21.4536 50.2043 21.062C54.5889 20.5167 58.5852 23.6291 59.1305 28.0136Z" fill="#31C3A2"/>
<path d="M217.432 73.3608C205.896 73.3608 195.48 80.5288 195.48 91.2808C195.48 101.361 204.776 104.721 213.96 106.065C220.008 106.961 222.248 107.409 222.248 109.649C222.248 111.665 220.456 112.673 217.656 112.673C210.6 112.673 208.024 110.097 202.2 110.097C197.16 110.097 195.256 113.793 195.256 118.497C195.256 123.537 204.328 127.121 215.752 127.121C230.872 127.121 238.824 120.289 238.824 109.201C238.824 98.8968 231.096 94.8648 219.112 93.1848C215.192 92.6248 211.944 92.6249 211.944 90.2729C211.944 88.1448 214.632 87.1368 217.992 87.1368C221.8 87.1368 226.504 89.3768 230.2 89.3768C235.016 89.3768 237.032 86.2408 237.032 81.6488C237.032 78.5128 235.016 76.7208 232.664 75.7128C228.52 73.9208 223.816 73.3608 217.432 73.3608Z" fill="#31C3A2"/>
<path d="M248.254 89.8248H252.062C252.174 95.0888 251.95 100.577 251.95 105.841C251.95 120.625 259.79 126.673 270.094 126.673C275.918 126.673 278.27 126.225 280.846 124.433C282.862 123.089 283.87 121.185 283.87 116.929C283.87 113.345 281.518 109.761 277.486 109.761C275.806 109.761 275.358 110.321 273.118 110.321C270.206 110.321 269.422 106.961 269.422 104.273V89.7128H277.15C281.182 89.7128 283.198 86.1288 283.198 81.9848C283.198 76.8328 280.51 74.2568 275.918 74.3688H269.534C269.646 70.5608 269.758 67.9848 269.758 65.8568C269.758 61.6008 266.958 58.9128 262.366 58.9128C255.982 58.9128 252.622 62.2728 252.398 68.5448L252.174 74.4808H248.702C244.558 74.4808 241.758 77.7288 241.758 81.9848C241.758 86.6888 243.55 89.8248 248.254 89.8248Z" fill="#31C3A2"/>
<path d="M291.881 81.9848V92.0648C291.881 99.6808 291.657 109.537 291.657 118.161C291.657 124.769 295.577 126.561 300.617 126.561C305.657 126.561 309.801 124.545 309.913 119.281C310.137 115.025 309.689 108.977 309.689 104.833C309.689 93.9688 314.057 90.6088 319.993 90.6088H321.449C326.265 90.6088 328.505 86.0168 328.505 81.7608C328.505 75.9368 325.817 73.3608 320.777 73.3608C315.849 73.3608 310.361 76.7208 308.345 81.3128L307.561 78.5128C306.665 75.3768 304.313 73.8088 300.841 73.8088C295.241 73.8088 291.881 76.6088 291.881 81.9848Z" fill="#31C3A2"/>
<path d="M349.889 104.833C363.665 104.721 370.945 104.497 373.185 104.497C380.689 104.385 382.257 101.361 382.257 94.6408C382.257 83.8888 372.625 73.3608 358.289 73.3608C343.169 73.3608 331.297 85.0088 331.297 101.473C331.297 115.697 343.057 127.009 357.841 127.009C366.913 127.009 371.953 125.441 375.873 123.089C378.561 121.521 380.017 119.057 380.017 116.369C380.017 111.777 376.769 107.745 372.737 107.745C370.721 107.745 368.929 108.305 367.025 109.313C365.233 110.321 362.097 111.329 358.961 111.329C355.265 111.329 350.673 109.201 349.889 104.833ZM358.065 87.5848C361.985 87.5848 365.009 90.0488 365.009 93.2968C365.009 93.7448 364.337 93.8568 363.665 93.8568C359.185 93.9688 354.033 94.1928 349.777 94.1928C350.113 90.8328 353.585 87.5848 358.065 87.5848Z" fill="#31C3A2"/>
<path d="M444.378 90.4968L444.49 81.8728C444.49 76.7208 441.69 73.9208 435.978 73.9208C433.178 73.9208 430.714 74.7048 429.258 76.7208C428.698 77.5048 428.25 78.4008 427.914 79.6328C425.226 75.8248 420.522 73.6968 415.37 73.6968C400.362 73.6968 388.826 84.2248 388.826 101.361C388.826 115.921 398.458 126.785 414.026 126.785C419.962 126.785 424.778 123.985 427.466 119.617C428.922 124.657 431.386 126.449 435.306 126.449C440.458 126.449 444.714 125.105 444.714 118.833C444.49 115.025 444.378 111.217 444.378 107.409V90.4968ZM407.418 100.913C407.418 93.4088 411.338 89.2648 417.05 89.2648C422.09 89.2648 426.682 93.0728 426.682 100.129C426.682 107.185 421.978 111.441 416.49 111.441C411.226 111.441 407.418 106.849 407.418 100.913Z" fill="#31C3A2"/>
<path d="M456.928 97.8888L456.816 111.329C456.592 116.593 456.704 117.041 456.704 118.497C456.704 124.657 461.296 126.449 465.664 126.449C470.704 126.449 475.184 124.321 475.184 119.281V100.241C475.072 94.6408 476.304 88.5928 482.688 88.5928C486.944 88.5928 488.96 93.2968 488.96 97.2169C489.072 107.745 488.736 110.881 488.736 119.169C488.736 123.985 492.32 126.337 497.472 126.449C502.4 126.561 506.656 124.545 506.88 119.617C506.992 116.033 506.992 112.001 506.992 108.865C506.992 104.273 506.992 100.577 507.104 95.9848C507.104 91.9528 510.352 88.8168 514.16 88.8168C518.752 88.8168 519.872 92.8489 519.872 97.2169C519.872 106.289 519.536 112.785 519.536 119.281C519.536 123.649 523.12 126.449 528.72 126.449C532.08 126.449 537.568 125.553 537.904 119.841C538.128 115.361 538.128 111.329 538.128 107.409L538.016 94.8648C538.016 81.8728 531.744 73.1368 517.52 73.3608C512.144 73.4728 505.76 76.8328 502.512 81.4248C499.712 76.7208 494.896 73.3608 487.504 73.3608C482.128 73.3608 476.416 76.9448 474.4 80.6408L473.952 78.6248C473.28 75.7128 470.368 73.3608 466.336 73.3608C460.064 73.3608 456.816 76.1608 456.816 81.3128C456.816 84.8968 457.152 87.3608 456.928 97.8888Z" fill="#31C3A2"/>
<path d="M550.342 53.4248C550.118 71.9048 549.782 96.3208 550.23 114.241C550.342 124.321 554.374 127.121 560.646 126.449C567.254 125.777 569.158 123.313 569.382 117.937C569.494 114.241 569.158 109.985 569.158 105.281C569.158 87.8088 569.158 70.7848 569.494 53.4248C569.606 47.8248 565.798 45.1368 559.862 45.1368C554.71 45.1368 550.454 47.7128 550.342 53.4248Z" fill="#31C3A2"/>
<path d="M634.362 90.4968L634.474 81.8728C634.474 76.7208 631.674 73.9208 625.962 73.9208C623.162 73.9208 620.698 74.7048 619.242 76.7208C618.682 77.5048 618.234 78.4008 617.898 79.6328C615.21 75.8248 610.506 73.6968 605.354 73.6968C590.346 73.6968 578.81 84.2248 578.81 101.361C578.81 115.921 588.442 126.785 604.01 126.785C609.946 126.785 614.762 123.985 617.45 119.617C618.906 124.657 621.37 126.449 625.29 126.449C630.442 126.449 634.698 125.105 634.698 118.833C634.474 115.025 634.362 111.217 634.362 107.409V90.4968ZM597.402 100.913C597.402 93.4088 601.322 89.2648 607.034 89.2648C612.074 89.2648 616.666 93.0728 616.666 100.129C616.666 107.185 611.962 111.441 606.474 111.441C601.21 111.441 597.402 106.849 597.402 100.913Z" fill="#31C3A2"/>
<path d="M646.913 52.9768L647.137 98.0008L646.801 116.929C646.689 122.753 648.817 126.113 653.969 126.337C658.561 126.561 661.697 125.217 662.705 120.961L663.041 119.505C665.617 123.985 671.105 126.897 676.817 126.897C692.721 126.897 703.473 114.689 703.473 99.4568C703.473 85.0088 693.393 73.3608 678.609 73.3608C673.009 73.3608 667.745 75.0408 664.833 79.6328C664.833 79.5208 664.833 77.9528 665.169 52.3048C665.281 45.6968 660.577 44.4648 655.649 44.4648C650.721 44.4648 647.025 46.8168 646.913 52.9768ZM685.105 99.5688C685.105 106.513 679.953 111.553 674.689 111.553C669.649 111.553 665.057 107.073 665.057 100.465C665.057 92.6248 669.873 89.1528 675.585 89.1528C680.513 89.1528 685.105 93.0728 685.105 99.5688Z" fill="#31C3A2"/>
<path d="M733.135 73.3608C721.599 73.3608 711.183 80.5288 711.183 91.2808C711.183 101.361 720.479 104.721 729.663 106.065C735.711 106.961 737.951 107.409 737.951 109.649C737.951 111.665 736.159 112.673 733.359 112.673C726.303 112.673 723.727 110.097 717.903 110.097C712.863 110.097 710.959 113.793 710.959 118.497C710.959 123.537 720.031 127.121 731.455 127.121C746.575 127.121 754.527 120.289 754.527 109.201C754.527 98.8968 746.799 94.8648 734.815 93.1848C730.895 92.6248 727.647 92.6249 727.647 90.2729C727.647 88.1448 730.335 87.1368 733.695 87.1368C737.503 87.1368 742.207 89.3768 745.903 89.3768C750.719 89.3768 752.735 86.2408 752.735 81.6488C752.735 78.5128 750.719 76.7208 748.367 75.7128C744.223 73.9208 739.519 73.3608 733.135 73.3608Z" fill="#31C3A2"/>
</g>
<defs>
<clipPath id="clip0">
<rect width="758" height="135" fill="white" transform="translate(0 21)"/>
</clipPath>
</defs>
</svg>
